<?xml version="1.0" encoding="UTF-8"?>
<svg xmlns="http://www.w3.org/2000/svg" xmlns:xlink="http://www.w3.org/1999/xlink" width="18px" height="18px" viewBox="0 0 18 18" version="1.1">
<g id="surface1">
<path style=" stroke:none;fill-rule:nonzero;fill:rgb(0%,0%,0%);fill-opacity:1;" d="M 9.84375 11.992188 L 9.800781 11.996094 C 9.675781 12.007812 9.554688 12.066406 9.464844 12.152344 L 7.191406 14.425781 C 6.710938 14.90625 6.066406 15.171875 5.382812 15.171875 C 4.695312 15.171875 4.054688 14.90625 3.570312 14.425781 C 3.089844 13.941406 2.828125 13.300781 2.828125 12.613281 C 2.828125 11.929688 3.089844 11.285156 3.570312 10.804688 L 5.984375 8.390625 C 6.105469 8.269531 6.242188 8.160156 6.382812 8.066406 C 6.546875 7.960938 6.722656 7.867188 6.90625 7.800781 C 7.074219 7.738281 7.253906 7.695312 7.433594 7.671875 C 7.550781 7.652344 7.675781 7.648438 7.789062 7.648438 C 7.839844 7.648438 7.890625 7.648438 7.953125 7.652344 C 8.574219 7.691406 9.160156 7.957031 9.597656 8.390625 C 9.867188 8.664062 10.074219 8.992188 10.199219 9.351562 C 10.296875 9.632812 10.59375 9.792969 10.878906 9.707031 C 10.882812 9.707031 10.882812 9.703125 10.886719 9.703125 C 10.890625 9.703125 10.894531 9.703125 10.894531 9.699219 C 11.179688 9.613281 11.34375 9.3125 11.265625 9.027344 C 11.109375 8.480469 10.835938 8.019531 10.398438 7.585938 C 9.851562 7.039062 9.136719 6.679688 8.375 6.554688 C 8.308594 6.546875 8.242188 6.535156 8.175781 6.527344 C 8.042969 6.515625 7.914062 6.507812 7.785156 6.507812 C 7.691406 6.507812 7.601562 6.511719 7.511719 6.519531 C 7.324219 6.53125 7.132812 6.558594 6.945312 6.605469 C 6.90625 6.613281 6.871094 6.625 6.832031 6.632812 C 6.59375 6.699219 6.363281 6.78125 6.144531 6.890625 C 5.785156 7.070312 5.457031 7.300781 5.171875 7.589844 L 2.761719 10 C 2.070312 10.703125 1.6875 11.628906 1.6875 12.621094 C 1.6875 13.613281 2.070312 14.539062 2.765625 15.238281 C 3.460938 15.929688 4.390625 16.3125 5.378906 16.3125 C 6.371094 16.3125 7.296875 15.929688 7.996094 15.234375 L 10.289062 12.9375 C 10.65625 12.570312 10.359375 11.941406 9.84375 11.992188 Z M 9.84375 11.992188 "/>
<path style=" stroke:none;fill-rule:nonzero;fill:rgb(0%,0%,0%);fill-opacity:1;" d="M 15.234375 2.765625 C 14.539062 2.070312 13.609375 1.6875 12.621094 1.6875 C 11.632812 1.6875 10.703125 2.070312 10.003906 2.765625 L 7.765625 5.007812 C 7.425781 5.347656 7.640625 5.929688 8.121094 5.96875 C 8.285156 5.984375 8.449219 5.921875 8.566406 5.808594 L 10.8125 3.570312 C 11.292969 3.089844 11.9375 2.828125 12.621094 2.828125 C 13.304688 2.828125 13.949219 3.089844 14.429688 3.570312 C 14.914062 4.054688 15.175781 4.695312 15.175781 5.382812 C 15.175781 6.066406 14.914062 6.710938 14.429688 7.191406 L 12.019531 9.605469 C 11.898438 9.726562 11.761719 9.835938 11.617188 9.933594 C 11.457031 10.039062 11.28125 10.128906 11.097656 10.195312 C 10.929688 10.257812 10.75 10.300781 10.570312 10.324219 C 10.453125 10.34375 10.328125 10.351562 10.210938 10.351562 C 10.164062 10.351562 10.109375 10.347656 10.050781 10.34375 C 9.429688 10.304688 8.839844 10.039062 8.40625 9.605469 C 8.148438 9.347656 7.957031 9.042969 7.828125 8.707031 C 7.726562 8.4375 7.4375 8.289062 7.15625 8.363281 C 6.84375 8.445312 6.660156 8.773438 6.761719 9.085938 C 6.917969 9.578125 7.1875 9.996094 7.59375 10.402344 L 7.601562 10.410156 C 8.195312 11.003906 8.984375 11.378906 9.824219 11.46875 C 9.957031 11.480469 10.085938 11.488281 10.214844 11.488281 C 10.308594 11.488281 10.398438 11.484375 10.492188 11.480469 C 10.71875 11.460938 10.949219 11.421875 11.167969 11.367188 C 11.40625 11.304688 11.636719 11.21875 11.855469 11.109375 C 12.21875 10.929688 12.542969 10.699219 12.828125 10.410156 L 15.242188 8 C 15.9375 7.300781 16.320312 6.375 16.320312 5.382812 C 16.320312 4.390625 15.929688 3.464844 15.234375 2.765625 Z M 15.234375 2.765625 "/>
</g>
</svg>
